<svg width="337" height="284" viewBox="0 0 337 284" fill="none" xmlns="http://www.w3.org/2000/svg">
<path d="M336.783 41.5037H128V52.2278H336.783V41.5037Z" fill="#E5DAF2" fill-opacity="0.3"/>
<path d="M146.807 1.96867H137.604V41.5037H146.807V1.96867Z" fill="#E5DAF2" fill-opacity="0.3"/>
<path d="M191.288 1.96867H182.085V41.5037H191.288V1.96867Z" fill="#E5DAF2" fill-opacity="0.3"/>
<path d="M241.768 0.968657L232.698 2.53201L239.414 41.4925L248.484 39.9291L241.768 0.968657Z" fill="#E5DAF2" fill-opacity="0.3"/>
<path d="M158.203 7.17065H149V41.5037H158.203V7.17065Z" fill="#E5DAF2" fill-opacity="0.3"/>
<path d="M179.348 7.17065H170.145V41.5037H179.348V7.17065Z" fill="#E5DAF2" fill-opacity="0.3"/>
<path d="M232.712 7.17065H223.509V41.5037H232.712V7.17065Z" fill="#E5DAF2" fill-opacity="0.3"/>
<path d="M203.38 5.98743L194.396 7.98413L201.844 41.4994L210.828 39.5027L203.38 5.98743Z" fill="#E5DAF2" fill-opacity="0.3"/>
<path d="M166.158 0H161.564V41.5038H166.158V0Z" fill="#E5DAF2" fill-opacity="0.3"/>
<path d="M220.867 0H216.273V41.5038H220.867V0Z" fill="#E5DAF2" fill-opacity="0.3"/>
<path d="M316.744 10.2119H271.927V41.1516H316.744V10.2119Z" fill="#E5DAF2" fill-opacity="0.3"/>
<path d="M128 132.322L336.783 132.322V121.598L128 121.598V132.322Z" fill="#E5DAF2" fill-opacity="0.3"/>
<path d="M317.961 121.582H327.164V82.047H317.961V121.582Z" fill="#E5DAF2" fill-opacity="0.3"/>
<path d="M273.496 121.582H282.699V82.047H273.496V121.582Z" fill="#E5DAF2" fill-opacity="0.3"/>
<path d="M216.287 120.019L225.356 121.583L232.072 82.6223L223.002 81.059L216.287 120.019Z" fill="#E5DAF2" fill-opacity="0.3"/>
<path d="M306.564 121.582H315.768V87.2491H306.564V121.582Z" fill="#E5DAF2" fill-opacity="0.3"/>
<path d="M285.42 121.582H294.623V87.2491H285.42V121.582Z" fill="#E5DAF2" fill-opacity="0.3"/>
<path d="M232.055 121.582H241.259V87.2491H232.055V121.582Z" fill="#E5DAF2" fill-opacity="0.3"/>
<path d="M253.975 119.57L262.959 121.567L270.408 88.0514L261.423 86.0547L253.975 119.57Z" fill="#E5DAF2" fill-opacity="0.3"/>
<path d="M298.625 121.598H303.219V80.0943H298.625V121.598Z" fill="#E5DAF2" fill-opacity="0.3"/>
<path d="M243.916 121.598H248.51V80.0943H243.916V121.598Z" fill="#E5DAF2" fill-opacity="0.3"/>
<path d="M148.039 121.23H192.856V90.2902H148.039V121.23Z" fill="#E5DAF2" fill-opacity="0.3"/>
<path d="M208.783 192.504H0V203.228H208.783V192.504Z" fill="#E5DAF2" fill-opacity="0.3"/>
<path d="M18.807 152.969H9.60352V192.504H18.807V152.969Z" fill="#E5DAF2" fill-opacity="0.3"/>
<path d="M63.2885 152.969H54.085V192.504H63.2885V152.969Z" fill="#E5DAF2" fill-opacity="0.3"/>
<path d="M113.768 151.969L104.698 153.532L111.414 192.492L120.484 190.929L113.768 151.969Z" fill="#E5DAF2" fill-opacity="0.3"/>
<path d="M30.2035 158.171H21V192.504H30.2035V158.171Z" fill="#E5DAF2" fill-opacity="0.3"/>
<path d="M51.348 158.171H42.1445V192.504H51.348V158.171Z" fill="#E5DAF2" fill-opacity="0.3"/>
<path d="M104.712 158.171H95.5088V192.504H104.712V158.171Z" fill="#E5DAF2" fill-opacity="0.3"/>
<path d="M75.3798 156.987L66.3955 158.984L73.8441 192.499L82.8284 190.503L75.3798 156.987Z" fill="#E5DAF2" fill-opacity="0.3"/>
<path d="M38.1582 151H33.5645V192.504H38.1582V151Z" fill="#E5DAF2" fill-opacity="0.3"/>
<path d="M92.8672 151H88.2734V192.504H92.8672V151Z" fill="#E5DAF2" fill-opacity="0.3"/>
<path d="M188.744 161.212H143.927V192.152H188.744V161.212Z" fill="#E5DAF2" fill-opacity="0.3"/>
<path d="M-7.62939e-05 283.322H208.783V272.598H-7.62939e-05V283.322Z" fill="#E5DAF2" fill-opacity="0.3"/>
<path d="M189.961 272.582H199.164V233.047H189.961V272.582Z" fill="#E5DAF2" fill-opacity="0.3"/>
<path d="M145.496 272.582H154.699V233.047H145.496V272.582Z" fill="#E5DAF2" fill-opacity="0.3"/>
<path d="M88.2867 271.019L97.3564 272.583L104.072 233.622L95.0023 232.059L88.2867 271.019Z" fill="#E5DAF2" fill-opacity="0.3"/>
<path d="M178.564 272.582H187.768V238.249H178.564V272.582Z" fill="#E5DAF2" fill-opacity="0.3"/>
<path d="M157.42 272.582H166.623V238.249H157.42V272.582Z" fill="#E5DAF2" fill-opacity="0.3"/>
<path d="M104.055 272.582H113.259V238.249H104.055V272.582Z" fill="#E5DAF2" fill-opacity="0.3"/>
<path d="M125.975 270.57L134.959 272.567L142.408 239.051L133.423 237.055L125.975 270.57Z" fill="#E5DAF2" fill-opacity="0.3"/>
<path d="M170.625 272.598H175.219V231.094H170.625V272.598Z" fill="#E5DAF2" fill-opacity="0.3"/>
<path d="M115.916 272.598H120.51V231.094H115.916V272.598Z" fill="#E5DAF2" fill-opacity="0.3"/>
<path d="M20.0394 272.23H64.8564V241.29H20.0394L20.0394 272.23Z" fill="#E5DAF2" fill-opacity="0.3"/>
</svg>
