<svg width="317" height="587" viewBox="0 0 317 587" fill="none" xmlns="http://www.w3.org/2000/svg">
<path d="M240.417 46.5237H6.38086V58.5449H240.417V46.5237Z" fill="#E5DAF2" fill-opacity="0.5"/>
<path d="M27.4627 2.20679H17.146V46.5236H27.4627V2.20679Z" fill="#E5DAF2" fill-opacity="0.3"/>
<path d="M77.3235 2.20679H67.0068V46.5236H77.3235V2.20679Z" fill="#E5DAF2" fill-opacity="0.3"/>
<path d="M133.909 1.08581L123.742 2.83826L131.27 46.511L141.437 44.7586L133.909 1.08581Z" fill="#E5DAF2" fill-opacity="0.3"/>
<path d="M40.2376 8.03796H29.9209V46.5236H40.2376V8.03796Z" fill="#E5DAF2" fill-opacity="0.3"/>
<path d="M63.9387 8.03796H53.6221V46.5236H63.9387V8.03796Z" fill="#E5DAF2" fill-opacity="0.3"/>
<path d="M123.758 8.03796H113.441V46.5236H123.758V8.03796Z" fill="#E5DAF2" fill-opacity="0.3"/>
<path d="M90.8776 6.71162L80.8066 8.94983L89.1561 46.5189L99.2271 44.2807L90.8776 6.71162Z" fill="#E5DAF2" fill-opacity="0.3"/>
<path d="M49.1547 0H44.0054V46.5237H49.1547V0Z" fill="#E5DAF2" fill-opacity="0.3"/>
<path d="M110.48 0H105.331V46.5237H110.48V0Z" fill="#E5DAF2" fill-opacity="0.3"/>
<path d="M217.954 11.447H167.716V46.129H217.954V11.447Z" fill="#E5DAF2" fill-opacity="0.3"/>
<path d="M6.38103 148.327L240.417 148.327V136.306L6.38103 136.306V148.327Z" fill="#E5DAF2" fill-opacity="0.5"/>
<path d="M219.317 136.288H229.634V91.9708H219.317V136.288Z" fill="#E5DAF2" fill-opacity="0.3"/>
<path d="M169.474 136.288H179.791V91.9708H169.474V136.288Z" fill="#E5DAF2" fill-opacity="0.3"/>
<path d="M105.346 134.536L115.513 136.288L123.041 92.6156L112.874 90.8632L105.346 134.536Z" fill="#E5DAF2" fill-opacity="0.3"/>
<path d="M206.543 136.288H216.859V97.8021H206.543V136.288Z" fill="#E5DAF2" fill-opacity="0.3"/>
<path d="M182.841 136.288H193.157V97.8021H182.841V136.288Z" fill="#E5DAF2" fill-opacity="0.3"/>
<path d="M123.022 136.288H133.339V97.8021H123.022V136.288Z" fill="#E5DAF2" fill-opacity="0.3"/>
<path d="M147.592 134.032L157.663 136.27L166.013 98.7014L155.942 96.4631L147.592 134.032Z" fill="#E5DAF2" fill-opacity="0.3"/>
<path d="M197.643 136.306H202.792V89.7818H197.643V136.306Z" fill="#E5DAF2" fill-opacity="0.3"/>
<path d="M136.317 136.306H141.467V89.7818H136.317V136.306Z" fill="#E5DAF2" fill-opacity="0.3"/>
<path d="M28.8443 135.893H79.082V101.211H28.8443L28.8443 135.893Z" fill="#E5DAF2" fill-opacity="0.3"/>
<path d="M0.118805 586.131H315.935L315.935 189.97L0.118805 189.97L0.118805 586.131Z" fill="#D1ADFF"/>
<path opacity="0.5" d="M316.096 189.952H0.101074V585.09H316.096V189.952Z" fill="white"/>
<path opacity="0.2" d="M306.587 202.386H56.1343V275.356H306.587V202.386Z" fill="black"/>
<path d="M70.3623 214.21H56.1343V275.374H70.3623V214.21Z" fill="white"/>
<path d="M139.152 214.21H124.924V275.374H139.152V214.21Z" fill="white"/>
<path d="M217.257 212.67L203.235 215.087L213.625 275.363L227.646 272.946L217.257 212.67Z" fill="white"/>
<path d="M87.981 222.266H73.7529V275.374H87.981V222.266Z" fill="white"/>
<path d="M120.689 222.266H106.461V275.374H120.689V222.266Z" fill="white"/>
<path d="M203.241 222.266H189.013V275.374H203.241V222.266Z" fill="white"/>
<path d="M157.856 220.426L143.967 223.512L155.489 275.356L169.378 272.269L157.856 220.426Z" fill="white"/>
<path d="M100.29 211.178H93.1846V275.374H100.29V211.178Z" fill="white"/>
<path d="M184.904 211.178H177.799V275.374H184.904V211.178Z" fill="white"/>
<path d="M56.134 359.899L306.587 359.899V286.929H56.134V359.899Z" fill="black" fill-opacity="0.2"/>
<path d="M292.359 359.899H306.587V298.735H292.359V359.899Z" fill="white"/>
<path d="M223.551 359.899H237.779V298.735H223.551V359.899Z" fill="white"/>
<path d="M135.077 357.476L149.099 359.893L159.488 299.617L145.467 297.201L135.077 357.476Z" fill="white"/>
<path d="M274.74 359.899H288.968V306.791H274.74V359.899Z" fill="white"/>
<path d="M242.013 359.899H256.241V306.791H242.013V359.899Z" fill="white"/>
<path d="M159.48 359.899H173.708V306.791H159.48V359.899Z" fill="white"/>
<path d="M193.38 356.795L207.27 359.882L218.791 308.038L204.902 304.952L193.38 356.795Z" fill="white"/>
<path d="M262.432 359.899H269.537V295.703H262.432V359.899Z" fill="white"/>
<path d="M177.817 359.899H184.922V295.703H177.817V359.899Z" fill="white"/>
<path d="M70.3623 298.735H56.1343V359.899H70.3623V298.735Z" fill="white"/>
<path d="M87.981 306.791H73.7529V359.899H87.981V306.791Z" fill="white"/>
<path d="M120.689 306.791H106.461V359.899H120.689V306.791Z" fill="white"/>
<path d="M100.29 295.703H93.1846V359.899H100.29V295.703Z" fill="white"/>
<path opacity="0.2" d="M306.587 371.454H56.1343V444.424H306.587V371.454Z" fill="black"/>
<path d="M214.114 383.278H199.886V444.442H214.114V383.278Z" fill="white"/>
<path d="M292.218 381.727L278.196 384.144L288.586 444.419L302.607 442.002L292.218 381.727Z" fill="white"/>
<path d="M162.943 391.334H148.715V444.442H162.943V391.334Z" fill="white"/>
<path d="M195.651 391.334H181.423V444.442H195.651V391.334Z" fill="white"/>
<path d="M278.184 391.334H263.956V444.442H278.184V391.334Z" fill="white"/>
<path d="M232.815 389.478L218.926 392.565L230.448 444.408L244.337 441.322L232.815 389.478Z" fill="white"/>
<path d="M175.233 380.228H168.128V444.424H175.233V380.228Z" fill="white"/>
<path d="M259.866 380.228H252.761V444.424H259.866V380.228Z" fill="white"/>
<path d="M128.543 381.739L114.521 384.156L124.911 444.431L138.932 442.015L128.543 381.739Z" fill="white"/>
<path d="M114.5 391.334H100.271V444.442H114.5V391.334Z" fill="white"/>
<path d="M69.1348 389.5L55.2456 392.587L66.7675 444.431L80.6567 441.344L69.1348 389.5Z" fill="white"/>
<path d="M96.1807 380.228H89.0757V444.424H96.1807V380.228Z" fill="white"/>
<path opacity="0.2" d="M0.119106 586.131H46.6069L46.6069 189.97H0.119106L0.119106 586.131Z" fill="black"/>
<path opacity="0.1" d="M304.721 457.378H186.178V569.642H304.721V457.378Z" fill="black"/>
<path opacity="0.1" d="M176.723 457.378H56.1343V569.642H176.723V457.378Z" fill="black"/>
<path opacity="0.2" d="M169.51 507.814C169.51 508.942 169.175 510.045 168.548 510.983C167.921 511.922 167.03 512.653 165.988 513.085C164.945 513.517 163.798 513.63 162.691 513.409C161.584 513.189 160.568 512.646 159.77 511.848C158.972 511.05 158.428 510.033 158.208 508.927C157.988 507.82 158.101 506.673 158.533 505.63C158.965 504.588 159.696 503.696 160.634 503.07C161.573 502.443 162.676 502.108 163.804 502.108C165.317 502.108 166.769 502.709 167.839 503.779C168.909 504.849 169.51 506.3 169.51 507.814Z" fill="black"/>
<path opacity="0.2" d="M203.6 507.814C203.6 508.942 203.265 510.045 202.638 510.983C202.011 511.922 201.12 512.653 200.077 513.085C199.035 513.517 197.888 513.63 196.781 513.409C195.674 513.189 194.658 512.646 193.86 511.848C193.062 511.05 192.518 510.033 192.298 508.927C192.078 507.82 192.191 506.673 192.623 505.63C193.055 504.588 193.786 503.696 194.724 503.07C195.662 502.443 196.766 502.108 197.894 502.108C199.407 502.108 200.858 502.709 201.928 503.779C202.998 504.849 203.6 506.3 203.6 507.814Z" fill="black"/>
</svg>
