<svg width="569" height="300" viewBox="0 0 569 300" fill="none" xmlns="http://www.w3.org/2000/svg">
<path d="M185.193 143.246H310.365V106.49L185.193 106.49V143.246Z" fill="#C7C7C7"/>
<path d="M310.365 106.497V143.253H505.48V139.667H501.274V110.084H505.48V106.497H310.365Z" fill="#A6A6A6"/>
<path d="M315.49 139.435L501.491 139.435V110.309L315.49 110.309V139.435Z" fill="white"/>
<path d="M315.482 139.435C361.848 139.315 455.141 139.167 501.491 139.118L501.141 139.435V110.309C472.922 111.314 391.071 110.182 362.027 110.513L315.521 110.414C315.653 109.788 315.521 139.568 315.521 139.435H315.482ZM315.482 139.435C315.482 139.336 315.373 110.302 315.373 110.21C315.373 110.119 361.957 110.119 361.988 110.105L501.491 109.957H501.881V110.309L501.842 139.435V139.751H501.491C455.133 139.709 361.833 139.561 315.482 139.435Z" fill="#DBDBDB"/>
<path d="M434.734 132.993C448.957 133.162 463.179 133.279 477.401 133.345L501.491 133.401V132.593L477.401 132.649C463.179 132.696 448.957 132.811 434.734 132.993Z" fill="#DBDBDB"/>
<path d="M315.482 126.109V126.855L346.536 126.932L391.547 126.826C405.769 126.766 419.991 126.651 434.213 126.482C419.991 126.313 405.769 126.198 391.547 126.137L346.536 126.032L315.482 126.109Z" fill="#DBDBDB"/>
<path d="M315.482 115.189V116.089L359.878 115.983C374.11 115.922 388.333 115.808 402.544 115.639C388.322 115.47 374.1 115.355 359.878 115.294L315.482 115.189Z" fill="#DBDBDB"/>
<path d="M315.482 133.071V133.816H327.407C341.629 133.76 355.854 133.645 370.081 133.472C355.849 133.312 341.624 133.197 327.407 133.127L315.482 133.071Z" fill="#DBDBDB"/>
<path d="M433.31 120.519C447.537 120.678 461.762 120.793 475.984 120.863L501.492 120.927V120.111L475.984 120.174C461.751 120.231 447.527 120.345 433.31 120.519Z" fill="#DBDBDB"/>
<path d="M489.116 123.507C479.328 123.461 469.532 123.425 459.729 123.402H428.738H398.541C388.743 123.402 378.947 123.437 369.154 123.507C378.952 123.554 388.748 123.59 398.541 123.613H428.738H459.729C469.527 123.59 479.323 123.554 489.116 123.507Z" fill="#DBDBDB"/>
<path d="M476.855 79.1787H351.684V106.497H476.855V79.1787Z" fill="#EBEBEB"/>
<path d="M351.676 106.497V79.1787H156.562V81.8437H160.767V103.832H156.562V106.497H351.676Z" fill="#DBDBDB"/>
<path d="M346.559 82.0125H160.558V103.664H346.559V82.0125Z" fill="white"/>
<path d="M346.559 82.0125C300.193 82.1391 206.9 82.2867 160.557 82.336L160.916 82.0125V103.664C158.454 102.693 254.084 103.727 253.531 103.417C276.694 103.417 323.38 103.516 346.536 103.586C346.403 104.05 346.536 81.9211 346.536 82.0125H346.559ZM346.559 82.0125L346.645 103.664V103.741H346.559C323.356 103.811 276.749 103.903 253.554 103.91L160.557 104.015H160.168V103.664V82.0125V81.689H160.526C206.884 81.7382 300.185 81.8859 346.528 82.0125H346.559Z" fill="#DBDBDB"/>
<path d="M227.314 86.8012C213.092 86.6746 198.868 86.5879 184.64 86.541L160.55 86.4988V87.0965L184.64 87.0614C198.847 87.0286 213.071 86.9418 227.314 86.8012Z" fill="#DBDBDB"/>
<path d="M346.559 91.9345V91.3789L315.513 91.3227L270.502 91.4C256.28 91.4469 242.055 91.5313 227.828 91.6532C242.05 91.7798 256.275 91.8665 270.502 91.9134L315.513 91.9907L346.559 91.9345Z" fill="#DBDBDB"/>
<path d="M346.559 100.035V99.332L302.163 99.4093C287.936 99.4562 273.711 99.5429 259.489 99.6695C273.711 99.7867 287.936 99.8711 302.163 99.9226L346.559 100.035Z" fill="#DBDBDB"/>
<path d="M346.559 86.7449V86.1894H334.634C320.412 86.2316 306.19 86.3183 291.968 86.4496C306.19 86.5715 320.412 86.6558 334.634 86.7027L346.559 86.7449Z" fill="#DBDBDB"/>
<path d="M228.74 96.0762C214.512 95.959 200.285 95.8723 186.058 95.8161L160.55 95.7739V96.3786L186.058 96.3294C200.29 96.2872 214.518 96.2028 228.74 96.0762Z" fill="#DBDBDB"/>
<path d="M172.926 93.8541C182.724 93.8916 192.519 93.9174 202.312 93.9315H233.311H263.5C273.299 93.9315 283.094 93.9057 292.887 93.8541C283.094 93.812 273.299 93.7862 263.5 93.7768H233.311H202.312C192.514 93.7909 182.719 93.8166 172.926 93.8541Z" fill="#DBDBDB"/>
<path d="M234.691 24.1966H61.0029V143.253H234.691V24.1966Z" fill="#EBEBEB"/>
<path d="M300.7 24.1966H234.69V143.253H300.7V24.1966Z" fill="#DBDBDB"/>
<path d="M61.0029 83.2642H234.691L99.0506 86.3511L61.0029 83.2642Z" fill="#DBDBDB"/>
<path d="M234.691 128.76H61.0029L196.651 131.847L234.691 128.76Z" fill="#DBDBDB"/>
<path d="M61.0029 49.7293H171.026L73.2234 52.2467L61.0029 49.7293Z" fill="#DBDBDB"/>
<path d="M234.69 111.096H124.675L222.469 113.614L234.69 111.096Z" fill="#DBDBDB"/>
<path d="M249.271 31.6012H139.256L237.058 34.1256L249.271 31.6012Z" fill="#DBDBDB"/>
<path d="M136.319 39.1463H260.409L239.722 40.6582L136.319 39.1463Z" fill="#DBDBDB"/>
<path d="M77.8887 96.1254H201.978L181.291 97.6373L77.8887 96.1254Z" fill="#DBDBDB"/>
<path d="M154.194 61.149H234.69L249.076 65.1853L154.194 61.149Z" fill="#EBEBEB"/>
<path d="M173.596 101.378H254.092L268.47 105.415L173.596 101.378Z" fill="#EBEBEB"/>
<path d="M155.892 119.106H236.388L250.773 123.142L155.892 119.106Z" fill="#EBEBEB"/>
<path d="M38.8281 61.149H119.324L133.702 65.1853L38.8281 61.149Z" fill="#DBDBDB"/>
<path d="M142.114 37.8876H61.6259L47.2402 41.9169L142.114 37.8876Z" fill="#EBEBEB"/>
<path d="M146.468 109.078H65.9716L51.5859 113.114L146.468 109.078Z" fill="#EBEBEB"/>
<path d="M142.114 115.076H61.6259L47.2402 119.106L142.114 115.076Z" fill="#DBDBDB"/>
<path d="M234.69 101.378H299.329L313.714 105.415L234.69 101.378Z" fill="#DBDBDB"/>
<path d="M257.254 83.2642H307.382L300.699 79.9662L257.254 83.2642Z" fill="#DBDBDB"/>
<path d="M23.2744 143.267C182.724 142.838 361.583 142.831 521.033 143.267C361.583 143.703 182.724 143.696 23.2744 143.267Z" fill="#263238"/>
<path d="M344.16 242.817L421.51 225.652L519.787 238.014L439.096 256.452L344.16 242.817Z" fill="#DBDBDB"/>
<path d="M344.16 242.817L421.486 225.575C421.486 225.575 519.834 237.852 519.834 237.845L520.823 237.965L519.834 238.197L439.096 256.55C439.096 256.55 344.191 242.81 344.16 242.817ZM344.16 242.817C344.16 242.817 439.244 256.367 439.073 256.36L519.74 237.845V238.19C519.74 238.19 421.385 225.722 421.533 225.73L344.16 242.817Z" fill="#DBDBDB"/>
<path d="M436.02 251.67C440.778 250.348 445.685 249.117 450.608 247.901C455.53 246.684 460.53 245.517 465.546 244.385C470.562 243.253 475.672 242.107 480.797 241.031L488.523 239.421C491.156 238.914 493.734 238.38 496.397 237.902C494.061 238.57 491.584 239.181 489.177 239.828L481.817 241.664C476.91 242.894 471.894 244.055 466.878 245.18C461.862 246.305 456.753 247.458 451.628 248.534C446.503 249.61 441.331 250.686 436.02 251.67Z" fill="#C7C7C7"/>
<path d="M448.801 244.687C454.253 243 460.141 241.551 466.107 240.173C472.073 238.795 478.226 237.494 484.784 236.481C479.332 238.176 473.452 239.617 467.478 240.996C461.504 242.374 455.32 243.647 448.801 244.687Z" fill="#C7C7C7"/>
<path d="M412.716 248.878C417.475 247.556 422.382 246.326 427.304 245.109C432.226 243.893 437.227 242.725 442.243 241.593C447.259 240.461 452.368 239.315 457.485 238.239L465.219 236.636C467.844 236.13 470.43 235.595 473.094 235.11C470.757 235.778 468.28 236.397 465.874 237.037L458.513 238.879C453.599 240.103 448.591 241.263 443.575 242.395C438.559 243.527 433.449 244.673 428.324 245.749C423.199 246.825 418.028 247.894 412.716 248.878Z" fill="#C7C7C7"/>
<path d="M409.741 245.496C417.834 243.204 426.331 241.164 434.93 239.167C443.528 237.17 452.299 235.314 461.411 233.676C453.319 235.968 444.821 238.007 436.23 240.004C427.64 242.001 418.885 243.858 409.741 245.496Z" fill="#C7C7C7"/>
<path d="M419.851 239.132C424.314 237.67 429.197 236.453 434.158 235.3C439.12 234.147 444.284 233.106 449.79 232.29C445.327 233.76 440.444 234.969 435.49 236.123C430.537 237.276 425.365 238.317 419.851 239.132Z" fill="#C7C7C7"/>
<path d="M24.5205 170.733L131.849 152.394L235.415 179.713L128.624 198.713L24.5205 170.733Z" fill="#EBEBEB"/>
<path d="M24.5205 170.733L131.856 152.303C131.856 152.303 235.446 179.551 235.446 179.544L236.225 179.748L235.446 179.889L128.624 198.819C128.585 198.819 24.5517 170.754 24.5205 170.754V170.733ZM24.5205 170.733L128.655 198.622C128.398 198.671 235.446 179.523 235.36 179.544V179.882L131.825 152.458C132.028 152.415 24.4894 170.74 24.5205 170.74V170.733Z" fill="#DBDBDB"/>
<path d="M127.121 193.144C134.131 191.681 141.195 190.331 148.291 188.974C155.386 187.617 162.536 186.323 169.694 185.043C176.852 183.763 184.049 182.512 191.292 181.323L202.157 179.537C205.81 178.975 209.432 178.384 213.116 177.85C209.627 178.588 206.106 179.256 202.57 179.959L191.931 182.02C184.843 183.384 177.685 184.671 170.535 185.95C163.385 187.23 156.181 188.482 148.937 189.67C141.694 190.859 134.458 192.061 127.121 193.144Z" fill="#DBDBDB"/>
<path d="M154.631 183.419C162.279 181.64 170.208 180.135 178.16 178.701C186.113 177.266 194.213 175.958 202.531 174.896C194.883 176.675 186.954 178.18 179.002 179.615C171.049 181.049 162.949 182.357 154.631 183.419Z" fill="#DBDBDB"/>
<path d="M116.536 185.36C122.65 184.052 128.85 182.849 135.065 181.654C141.281 180.458 147.527 179.326 153.821 178.194C160.114 177.062 166.415 175.979 172.778 174.945L182.319 173.398C185.536 172.913 188.714 172.4 191.954 171.943C188.909 172.604 185.809 173.209 182.732 173.841L173.425 175.649C167.194 176.851 160.963 177.976 154.67 179.108C148.376 180.24 142.083 181.316 135.72 182.357C129.356 183.398 123.001 184.431 116.536 185.36Z" fill="#DBDBDB"/>
<path d="M111.543 181.415C117.19 180.191 122.922 179.066 128.678 177.955C134.434 176.844 140.229 175.789 146.039 174.749C151.849 173.708 157.722 172.695 163.595 171.746L172.435 170.34C175.418 169.897 178.37 169.425 181.376 169.011C178.565 169.636 175.691 170.192 172.855 170.79L164.241 172.47C158.501 173.588 152.691 174.636 146.88 175.677C141.07 176.718 135.197 177.723 129.325 178.679C123.452 179.636 117.54 180.536 111.543 181.415Z" fill="#DBDBDB"/>
<path d="M84.8047 181.337C91.8145 179.875 98.8788 178.525 105.974 177.161C113.07 175.796 120.22 174.517 127.378 173.23C134.535 171.943 141.732 170.705 148.968 169.51L159.872 167.724C163.525 167.168 167.147 166.571 170.831 166.036C167.341 166.782 163.821 167.443 160.285 168.146L149.653 170.185C142.566 171.542 135.408 172.829 128.258 174.116C121.108 175.403 113.903 176.64 106.66 177.836C99.4163 179.031 92.1416 180.248 84.8047 181.337Z" fill="#DBDBDB"/>
<path d="M83.917 176.661C90.1012 175.339 96.3789 174.123 102.664 172.913C108.95 171.704 115.298 170.558 121.645 169.397C127.993 168.237 134.38 167.154 140.813 166.106L150.471 164.538C153.719 164.046 156.944 163.526 160.215 163.069C157.099 163.737 153.984 164.341 150.868 164.988L141.452 166.81C135.174 168.026 128.827 169.165 122.479 170.326C116.131 171.486 109.736 172.569 103.303 173.616C96.8696 174.664 90.4517 175.719 83.917 176.661Z" fill="#DBDBDB"/>
<path d="M63.6436 175.431C70.6534 173.968 77.7177 172.618 84.821 171.261C91.9242 169.904 99.0665 168.582 106.255 167.33C113.444 166.078 120.61 164.799 127.853 163.61L138.719 161.824C142.372 161.262 146.001 160.671 149.677 160.136C146.188 160.875 142.668 161.543 139.139 162.246L128.508 164.292C121.42 165.649 114.262 166.936 107.104 168.216C99.9466 169.496 92.7499 170.747 85.5064 171.936C78.2629 173.124 70.9883 174.348 63.6436 175.431Z" fill="#DBDBDB"/>
<path d="M88.2324 166.226C96.3716 164.356 104.768 162.766 113.226 161.247C121.685 159.729 130.252 158.329 139.061 157.183C130.922 159.054 122.534 160.636 114.067 162.162C105.601 163.688 97.0414 165.066 88.2324 166.226Z" fill="#DBDBDB"/>
<path d="M181.789 264.356L318.184 241.052L449.782 275.768L314.08 299.909L181.789 264.356Z" fill="#EBEBEB"/>
<path d="M181.805 264.356L318.184 240.961C318.184 240.961 449.813 275.606 449.813 275.599L450.592 275.803L449.813 275.944L314.08 300C314.041 300.007 181.805 264.356 181.805 264.356ZM181.805 264.356L314.127 299.824C313.885 299.824 449.821 275.585 449.759 275.599V275.937L318.153 241.136C318.356 241.08 181.758 264.391 181.789 264.341L181.805 264.356Z" fill="#DBDBDB"/>
<path d="M312.164 292.835C321.051 290.978 330.078 289.241 339.074 287.532C348.07 285.824 357.175 284.171 366.264 282.54C375.354 280.908 384.505 279.326 393.712 277.807L407.521 275.543C412.194 274.84 416.766 274.074 421.447 273.398C417.015 274.341 412.513 275.206 408.05 276.113L394.537 278.7C385.533 280.43 376.436 282.062 367.347 283.693C358.257 285.325 349.106 286.907 339.9 288.419C330.693 289.93 321.495 291.456 312.164 292.835Z" fill="#DBDBDB"/>
<path d="M347.128 280.473C356.848 278.215 366.896 276.303 377.021 274.481C387.146 272.66 397.427 270.965 408.004 269.643C398.284 271.908 388.229 273.82 378.104 275.642C367.978 277.463 357.697 279.122 347.128 280.473Z" fill="#DBDBDB"/>
<path d="M298.721 282.941C306.509 281.281 314.368 279.748 322.266 278.236C330.164 276.725 338.131 275.276 346.099 273.841C354.067 272.407 362.097 271.029 370.182 269.707L382.317 267.738C386.398 267.126 390.44 266.472 394.56 265.896C390.666 266.739 386.772 267.506 382.877 268.307L371.054 270.6C363.164 272.126 355.189 273.56 347.221 274.995C339.253 276.429 331.215 277.807 323.13 279.122C315.046 280.437 306.93 281.795 298.721 282.941Z" fill="#DBDBDB"/>
<path d="M292.404 277.927C299.578 276.373 306.868 274.946 314.213 273.539C321.557 272.133 328.886 270.783 336.27 269.454C343.654 268.125 351.069 266.852 358.577 265.642L369.824 263.828C373.609 263.273 377.355 262.668 381.18 262.141C377.605 262.935 373.96 263.645 370.346 264.398L359.403 266.507C352.112 267.914 344.729 269.257 337.345 270.586C329.961 271.915 322.546 273.188 315.038 274.397C307.53 275.607 299.99 276.872 292.404 277.927Z" fill="#DBDBDB"/>
<path d="M258.392 277.829C267.278 275.972 276.306 274.235 285.302 272.527C294.297 270.818 303.402 269.165 312.492 267.534C321.581 265.903 330.733 264.32 339.916 262.809L353.725 260.544C358.398 259.841 362.97 259.075 367.651 258.435C363.219 259.377 358.718 260.242 354.255 261.149L340.741 263.737C331.738 265.467 322.64 267.098 313.551 268.729C304.462 270.361 295.31 271.943 286.104 273.455C276.898 274.967 267.722 276.45 258.392 277.829Z" fill="#DBDBDB"/>
<path d="M257.27 271.887C265.128 270.213 273.104 268.659 281.095 267.133C289.086 265.607 297.14 264.138 305.24 262.682C313.34 261.226 321.425 259.834 329.603 258.505L341.839 256.48C345.975 255.861 350.064 255.2 354.231 254.609C350.336 255.46 346.325 256.234 342.369 257.049L330.405 259.37C322.422 260.91 314.353 262.366 306.26 263.814C298.168 265.263 290.075 266.627 281.897 267.991C273.719 269.355 265.572 270.691 257.27 271.887Z" fill="#DBDBDB"/>
<path d="M231.505 270.326C240.392 268.469 249.419 266.732 258.415 265.024C267.411 263.315 276.516 261.662 285.605 260.031C294.694 258.4 303.846 256.817 313.052 255.299L326.862 253.034C331.535 252.331 336.107 251.565 340.78 250.89C336.356 251.832 331.854 252.697 327.391 253.604L313.878 256.192C304.874 257.921 295.777 259.553 286.688 261.184C277.598 262.816 268.447 264.398 259.24 265.91C250.034 267.421 240.836 268.947 231.505 270.326Z" fill="#DBDBDB"/>
<path d="M262.753 258.625C273.096 256.255 283.782 254.237 294.507 252.296C305.232 250.355 316.152 248.583 327.344 247.128C317.001 249.504 306.315 251.522 295.582 253.456C284.849 255.39 273.945 257.183 262.753 258.625Z" fill="#DBDBDB"/>
<path d="M460.715 54.1388C463.338 50.0043 469.665 51.1977 470.234 55.9344L471.427 65.8453C471.683 67.9755 473.281 69.6668 475.417 70.0697L485.143 71.9043C490.152 72.8492 490.617 79.667 485.805 81.6194L477.709 84.9045C475.475 85.8107 474.102 88.0767 474.381 90.3951L475.406 98.9181C475.989 103.761 469.937 106.778 466.501 103.357L458.944 95.8326C457.51 94.4046 455.315 93.9905 453.367 94.7806L443.106 98.944C438.441 100.837 434.233 95.8848 436.914 91.6577L441.634 84.2184C442.917 82.1947 442.664 79.6217 441.019 77.9841L435.056 72.0471C431.513 68.5187 434.962 62.4391 439.971 63.384L449.697 65.2185C451.834 65.6215 454.047 64.6491 455.227 62.7897L460.715 54.1388Z" fill="#FFA7E1"/>
<path d="M508.395 91.9325C508.965 87.1959 515.292 86.0027 517.915 90.1373L523.402 98.7884C524.582 100.648 526.795 101.62 528.932 101.218L538.658 99.3834C543.667 98.4388 547.116 104.519 543.572 108.047L537.61 113.983C535.965 115.621 535.711 118.194 536.995 120.218L541.713 127.657C544.395 131.885 540.186 136.836 535.521 134.943L525.26 130.779C523.313 129.989 521.117 130.403 519.683 131.831L512.126 139.355C508.69 142.776 502.638 139.759 503.221 134.916L504.247 126.393C504.526 124.075 503.153 121.809 500.919 120.902L492.823 117.617C488.011 115.664 488.476 108.846 493.486 107.902L503.212 106.068C505.348 105.665 506.946 103.974 507.202 101.843L508.395 91.9325Z" fill="#BA84FE"/>
<path d="M478.083 139.104C479.68 136.273 483.923 136.879 484.474 140.017L485.736 147.205C485.984 148.616 487.106 149.695 488.54 149.9L495.744 150.928C499.111 151.409 499.661 155.949 496.526 157.392L490.681 160.082C489.224 160.753 488.389 162.309 488.66 163.851L489.754 170.082C490.319 173.293 486.407 175.491 483.997 173.317L478.196 168.081C477.193 167.176 475.723 166.966 474.46 167.547L467.152 170.911C464.116 172.308 461.147 169.127 462.782 166.229L465.953 160.607C466.738 159.217 466.476 157.503 465.319 156.46L460.679 152.272C458.191 150.026 460.266 145.861 463.633 146.342L470.838 147.371C472.271 147.576 473.707 146.863 474.425 145.589L478.083 139.104Z" fill="#84D7FE"/>
<path d="M515.082 205.295L262.558 268.286V222.882L515.082 159.89C528.463 182.167 515.082 205.295 515.082 205.295Z" fill="#7DA6E8"/>
<path d="M16.1396 236.791L262.558 268.286V256.775L38.6723 232.051L16.1396 233.275V236.791Z" fill="#A7C7FF"/>
<path d="M262.566 223.093C271.772 243.098 262.566 268.286 262.566 268.286L28.0254 234.843V195.598L262.566 223.093Z" fill="#A7C7FF"/>
<path d="M256.763 222.418C265.728 242.346 257.503 263.807 257.503 263.807L28.0254 234.681V195.584L256.763 222.418Z" fill="white"/>
<path d="M256.763 222.418C257.067 223.191 257.947 225.371 258.251 226.137C260.073 231.612 260.997 237.298 260.992 243.014C261.027 250.065 259.89 257.081 257.62 263.828C257.729 264.138 28.0485 234.92 27.9707 234.998L27.6357 234.955V234.681V195.584V195.225L28.0252 195.275L142.441 208.797L256.716 222.404L256.763 222.418ZM256.763 222.418C200.498 215.59 82.7562 202.989 28.3679 195.598L28.4068 234.695L28.0719 234.344C28.0719 234.421 258.025 263.589 257.371 263.772C258.534 260.424 259.404 256.998 259.972 253.526C261.709 243.14 261.039 232.241 256.755 222.418H256.763Z" fill="#DBDBDB"/>
<path d="M139.061 212.531C177.35 216.75 220.234 221.953 258.391 227.066C220.102 222.846 177.217 217.636 139.061 212.531Z" fill="#DBDBDB"/>
<path d="M28.0254 209.901C60.8469 213.417 97.259 217.875 129.964 222.312C97.1188 218.796 60.7223 214.352 28.0254 209.901Z" fill="#DBDBDB"/>
<path d="M33.4932 213.761C89.2679 220.09 151.756 227.698 207.383 234.934C151.616 228.606 89.1277 220.997 33.4932 213.761Z" fill="#DBDBDB"/>
<path d="M63.6426 227.044C121.497 233.507 186.322 241.27 244.036 248.639C186.19 242.184 121.364 234.414 63.6426 227.044Z" fill="#DBDBDB"/>
<path d="M102.531 235.314C152.986 241.01 209.571 247.887 259.909 254.483C209.431 248.801 152.877 241.91 102.531 235.314Z" fill="#DBDBDB"/>
<path d="M57.1865 235.237C121.833 242.676 194.267 251.494 258.75 259.785C194.104 252.352 121.669 243.527 57.1865 235.237Z" fill="#DBDBDB"/>
<path d="M262.566 223.093L515.083 159.89L259.91 149.455L16.1396 190.268V194.206L262.566 223.093Z" fill="#A7C7FF"/>
<path d="M269.038 216.145C300.364 207.573 332.539 199.831 364.683 193.144C333.365 201.723 301.19 209.451 269.038 216.145Z" fill="#7DA6E8"/>
<path d="M208.458 212.123C217.181 212.531 226.193 213.445 234.854 214.394C243.515 215.344 252.456 216.504 260.946 218.086C252.223 217.685 243.211 216.764 234.558 215.815C225.905 214.865 216.955 213.67 208.458 212.123Z" fill="#7DA6E8"/>
<path d="M22.916 191.034C82.2268 196.786 142.013 203.572 200.926 211.258C141.569 205.52 81.7906 198.72 22.916 191.034Z" fill="#7DA6E8"/>
<path d="M434.158 185.5C458.802 178.511 483.744 172.142 508.984 166.395C484.351 173.384 459.409 179.753 434.158 185.5Z" fill="#A7C7FF"/>
<path d="M303.223 150.868C299.952 151.445 286.447 152.099 286.174 149.462C285.753 145.496 318.053 117.369 329.643 112.081C340.664 107.046 376.172 96.0622 384.942 95.8231L385.02 121.082C380.059 122.221 340.531 118.74 332.228 122.72C328.622 124.45 323.848 131.622 314.128 143.014C310.708 147.029 305.155 150.524 303.223 150.868Z" fill="#483D89"/>
<g opacity="0.3">
<path d="M303.223 150.868C299.952 151.445 286.447 152.099 286.174 149.462C285.753 145.496 318.053 117.369 329.643 112.081C340.664 107.046 376.172 96.0622 384.942 95.8231L385.02 121.082C380.059 122.221 340.531 118.74 332.228 122.72C328.622 124.45 323.848 131.622 314.128 143.014C310.708 147.029 305.155 150.524 303.223 150.868Z" fill="#3C3A3A"/>
</g>
<path d="M296.517 150.868C293.238 151.445 280.683 152.099 280.402 149.462C279.99 145.496 312.289 117.369 323.871 112.081C334.892 107.046 376.172 96.0622 384.942 95.8231L385.02 121.082C380.059 122.221 334.767 118.74 326.465 122.72C322.858 124.45 317.118 131.622 307.413 143.014C304.002 147.029 298.449 150.524 296.517 150.868Z" fill="#483D89"/>
<g opacity="0.2">
<path d="M296.517 150.868C293.238 151.445 280.683 152.099 280.402 149.462C279.99 145.496 312.289 117.369 323.871 112.081C334.892 107.046 376.172 96.0622 384.942 95.8231L385.02 121.082C380.059 122.221 334.767 118.74 326.465 122.72C322.858 124.45 317.118 131.622 307.413 143.014C304.002 147.029 298.449 150.524 296.517 150.868Z" fill="#3C3A3A"/>
</g>
<path d="M423.869 184.382C426.689 185.451 437.78 185.993 439.681 183.834C442.547 180.564 407.576 136.073 387.029 128.001C367.814 120.512 96.7293 72.9766 91.1371 72.189L90.9346 91.9345C128.702 97.2646 368.344 131.735 383.166 137.564C392.832 141.354 405.146 161.353 413.993 175.171C417.568 180.782 420.598 183.145 423.869 184.382Z" fill="#483D89"/>
<g opacity="0.2">
<path d="M423.869 184.382C426.689 185.451 437.78 185.993 439.681 183.834C442.547 180.564 407.576 136.073 387.029 128.001C367.814 120.512 96.7293 72.9766 91.1371 72.189L90.9346 91.9345C128.702 97.2646 368.344 131.735 383.166 137.564C392.832 141.354 405.146 161.353 413.993 175.171C417.568 180.782 420.598 183.145 423.869 184.382Z" fill="#3C3A3A"/>
</g>
<path d="M419.189 184.382C422.008 185.451 433.099 185.993 435 183.834C437.866 180.564 403.152 134.998 382.613 126.925C363.391 119.436 96.7297 72.9485 91.1374 72.189L86.2539 91.9345C124.021 97.2646 363.663 131.735 378.485 137.564C388.151 141.354 400.465 161.353 409.313 175.171C412.888 180.782 415.918 183.145 419.189 184.382Z" fill="#483D89"/>
<g opacity="0.1">
<path d="M419.189 184.382C422.008 185.451 433.099 185.993 435 183.834C437.866 180.564 403.152 134.998 382.613 126.925C363.391 119.436 96.7297 72.9485 91.1374 72.189L86.2539 91.9345C124.021 97.2646 363.663 131.735 378.485 137.564C388.151 141.354 400.465 161.353 409.313 175.171C412.888 180.782 415.918 183.145 419.189 184.382Z" fill="#3C3A3A"/>
</g>
<g opacity="0.1">
<path d="M143.641 81.3023L123.126 97.2294C106.061 94.7683 92.9678 92.9049 86.2695 91.9556L91.1453 72.189C92.664 72.4 113.592 76.0214 143.641 81.3023Z" fill="#3C3A3A"/>
<path d="M196.105 107.89L183.363 105.998L171.524 86.2246L190.287 89.5718L196.105 107.89Z" fill="#3C3A3A"/>
<path d="M267.871 103.65L253.462 116.469L240.665 114.528L250.899 100.527C256.585 101.563 262.242 102.604 267.871 103.65Z" fill="#3C3A3A"/>
<path d="M380.853 126.341L375.891 136.812C373.508 136.207 369.917 135.448 365.299 134.569L361.724 121.806C370.712 123.718 377.348 125.272 380.853 126.341Z" fill="#3C3A3A"/>
</g>
<path d="M142.66 194.726C114.418 193.496 92.9288 164.616 94.7514 130.357C95.6159 114.007 101.605 98.8046 111.606 87.5466C121.942 75.9159 135.284 69.8123 149.303 70.4521C163.323 71.092 175.956 78.2645 184.999 90.7461C193.761 102.799 198.107 118.459 197.227 134.822C195.498 167.239 173.487 193.045 147.185 194.684C145.678 194.775 144.168 194.79 142.66 194.726ZM118.795 92.7642C110.002 102.644 104.698 116.145 103.919 130.764C102.361 160.439 119.909 185.409 143.088 186.414C166.267 187.42 186.416 164.095 188.013 134.379C188.792 119.76 184.968 105.872 177.28 95.2605C169.873 85.0714 159.771 79.1998 148.836 78.7286C147.671 78.6653 146.503 78.6653 145.339 78.7286C135.65 79.3967 126.334 84.2697 118.795 92.7502V92.7642ZM94.7903 134.709C93.365 109.648 96.4727 105.724 95.2109 98.3335C94.6112 94.8175 89.1279 91.4422 89.1279 91.4422L93.918 73.4477C93.918 73.4477 108.849 74.7627 112.291 74.8119C118.413 74.8892 131.631 70.853 143.142 70.5928C143.142 70.5928 118.117 80.7468 110.072 93.6924C102.026 106.638 94.7903 134.695 94.7903 134.695V134.709Z" fill="#483D89"/>
<path opacity="0.1" d="M142.66 194.726C114.418 193.496 92.9288 164.616 94.7514 130.357C95.6159 114.007 101.605 98.8046 111.606 87.5466C121.942 75.9159 135.284 69.8123 149.303 70.4521C163.323 71.092 175.956 78.2645 184.999 90.7461C193.761 102.799 198.107 118.459 197.227 134.822C195.498 167.239 173.487 193.045 147.185 194.684C145.678 194.775 144.168 194.79 142.66 194.726ZM118.795 92.7642C110.002 102.644 104.698 116.145 103.919 130.764C102.361 160.439 119.909 185.409 143.088 186.414C166.267 187.42 186.416 164.095 188.013 134.379C188.792 119.76 184.968 105.872 177.28 95.2605C169.873 85.0714 159.771 79.1998 148.836 78.7286C147.671 78.6653 146.503 78.6653 145.339 78.7286C135.65 79.3967 126.334 84.2697 118.795 92.7502V92.7642ZM94.7903 134.709C93.365 109.648 96.4727 105.724 95.2109 98.3335C94.6112 94.8175 89.1279 91.4422 89.1279 91.4422L93.918 73.4477C93.918 73.4477 108.849 74.7627 112.291 74.8119C118.413 74.8892 131.631 70.853 143.142 70.5928C143.142 70.5928 118.117 80.7468 110.072 93.6924C102.026 106.638 94.7903 134.695 94.7903 134.695V134.709Z" fill="#3C3A3A"/>
<path d="M138.82 194.726C110.57 193.496 89.0811 164.616 90.9037 130.357C91.7682 114.007 97.7577 98.8046 107.758 87.5466C118.094 75.9159 131.436 69.8123 145.456 70.4521C159.475 71.092 172.108 78.2645 181.151 90.7461C189.913 102.799 194.259 118.459 193.379 134.822C191.65 167.239 169.639 193.046 143.337 194.684C141.833 194.775 140.325 194.789 138.82 194.726ZM114.947 92.7642C106.154 102.658 100.881 116.159 100.102 130.778C98.5444 160.453 116.085 185.423 139.264 186.429C162.443 187.434 182.592 164.109 184.189 134.393C184.968 119.774 181.143 105.886 173.456 95.2746C166.057 85.0854 155.947 79.2138 145.012 78.7427C143.847 78.6793 142.679 78.6793 141.515 78.7427C131.81 79.3967 122.487 84.2697 114.947 92.7502V92.7642ZM90.9426 134.709C89.5173 109.648 92.625 105.724 91.3632 98.3335C90.7635 94.8175 85.2803 91.4422 85.2803 91.4422L90.2884 71.3874C90.2884 71.3874 105.469 73.8134 108.903 73.8556C115.025 73.9399 127.783 70.853 139.279 70.6209C139.279 70.6209 114.254 80.7749 106.208 93.7206C98.1627 106.666 90.9426 134.695 90.9426 134.695V134.709Z" fill="#483D89"/>
<path d="M105.258 80.564C105.079 81.8086 102.516 82.5259 99.5334 82.1672C96.5504 81.8086 94.2917 80.5077 94.4786 79.2701C94.6655 78.0325 97.2202 77.3082 100.203 77.6669C103.186 78.0255 105.476 79.3193 105.258 80.564Z" fill="#A6A6A6"/>
<path d="M95.7871 79.3123C96.0286 78.7146 98.6222 78.0395 101.457 78.7287L95.7871 79.3123Z" fill="white"/>
<path d="M89.1201 91.604C94.5098 94.3323 96.8153 98.3546 96.2078 103.924C95.608 113.586 94.4008 123.156 94.3852 132.818C94.3117 137.64 94.6554 142.459 95.4133 147.233C91.9629 135.462 92.991 123.05 94.2061 111.061L94.9849 103.861C95.8261 98.4741 93.9413 94.7894 89.1045 91.604H89.1201Z" fill="white"/>
<path d="M117.269 75.0158C124.746 73.0891 132.511 71.4999 140.331 71.8163C132.542 72.4422 124.979 74.0173 117.269 75.0158Z" fill="white"/>
<path opacity="0.1" d="M117.261 93.2635C108.763 103.108 103.669 116.525 102.906 131.067C101.387 160.601 118.367 185.409 140.767 186.414C163.167 187.42 182.646 164.215 184.189 134.695C184.968 120.16 181.252 106.343 173.822 95.795C166.664 85.655 156.897 79.8186 146.32 79.3475C145.194 79.2841 144.065 79.2841 142.94 79.3475C133.554 79.9803 124.551 84.8182 117.261 93.2635Z" fill="#EBEBEB"/>
<g opacity="0.2">
<path d="M160.246 83.3134L102.843 136.636C102.789 134.794 102.844 132.944 102.914 131.06C103.185 125.558 104.12 120.1 105.702 114.781L143.866 79.3475C144.645 79.3475 145.51 79.3475 146.336 79.3475C151.266 79.6009 156.048 80.9643 160.246 83.3134Z" fill="white"/>
<path d="M180.247 108.108L113.397 170.206C112.168 168.484 111.054 166.697 110.063 164.855L177.599 102.117C178.607 104.067 179.491 106.067 180.247 108.108Z" fill="white"/>
<path d="M182.849 145.208C182.033 149.214 180.839 153.149 179.282 156.972L148.166 185.873C145.737 186.346 143.249 186.528 140.767 186.414C140.066 186.379 139.365 186.33 138.672 186.246L182.849 145.208Z" fill="white"/>
<path d="M182.973 117.664L119.223 176.879C118.919 176.612 118.631 176.331 118.351 176.042L182.677 116.272C182.794 116.736 182.88 117.207 182.973 117.664Z" fill="white"/>
</g>
<path d="M230.656 136.355L236.887 130.244C226.871 121.876 203.295 110.189 185.63 125.694L192.048 131.657C207.874 117.741 229.729 135.595 230.656 136.355Z" fill="#483D89"/>
<path d="M290.27 202.335C272.289 199.354 256.354 190.052 245.963 176.472C235.573 162.892 231.577 146.144 234.854 129.906C237.308 117.798 243.684 106.619 253.175 97.7825C262.666 88.9458 274.847 82.8484 288.176 80.2612C301.506 77.6741 315.385 78.7135 328.061 83.2479C340.736 87.7824 351.637 95.6082 359.386 105.736C367.135 115.864 371.384 127.838 371.595 140.146C371.806 152.454 367.97 164.542 360.572 174.881C353.174 185.221 342.547 193.348 330.033 198.234C317.52 203.121 303.682 204.548 290.27 202.335ZM243.92 131.425C241.701 142.461 243.355 153.846 248.652 163.992C253.948 174.137 262.622 182.536 273.462 188.015C284.301 193.494 296.766 195.78 309.114 194.553C321.463 193.326 333.078 188.648 342.339 181.172C351.6 173.696 358.043 163.795 360.768 152.852C363.494 141.91 362.366 130.472 357.543 120.136C352.719 109.8 344.44 101.083 333.862 95.2009C323.284 89.3192 310.936 86.5669 298.542 87.3286C285.308 88.1638 272.758 92.9502 262.868 100.934C252.979 108.918 246.313 119.645 243.92 131.425Z" fill="#483D89"/>
<path d="M364.06 114.521C359.317 100.302 331.69 84.6706 331.69 84.6706C342.875 87.1528 355.212 92.2017 361.21 93.3268C364.574 93.9526 384.981 95.8371 384.981 95.8371L385.058 121.096C385.058 121.096 379.451 121.377 378.049 124.689C375.042 131.657 376.561 133.345 369.146 157.521C369.076 157.521 368.733 128.732 364.06 114.521Z" fill="#483D89"/>
<g opacity="0.1">
<path d="M290.27 202.335C272.289 199.354 256.354 190.052 245.963 176.472C235.573 162.892 231.577 146.144 234.854 129.906C237.308 117.798 243.684 106.619 253.175 97.7825C262.666 88.9458 274.847 82.8484 288.176 80.2612C301.506 77.6741 315.385 78.7135 328.061 83.2479C340.736 87.7824 351.637 95.6082 359.386 105.736C367.135 115.864 371.384 127.838 371.595 140.146C371.806 152.454 367.97 164.542 360.572 174.881C353.174 185.221 342.547 193.348 330.033 198.234C317.52 203.121 303.682 204.548 290.27 202.335ZM243.92 131.425C241.701 142.461 243.355 153.846 248.652 163.992C253.948 174.137 262.622 182.536 273.462 188.015C284.301 193.494 296.766 195.78 309.114 194.553C321.463 193.326 333.078 188.648 342.339 181.172C351.6 173.696 358.043 163.795 360.768 152.852C363.494 141.91 362.366 130.472 357.543 120.136C352.719 109.8 344.44 101.083 333.862 95.2009C323.284 89.3192 310.936 86.5669 298.542 87.3286C285.308 88.1638 272.758 92.9502 262.868 100.934C252.979 108.918 246.313 119.645 243.92 131.425Z" fill="#3C3A3A"/>
<path d="M364.06 114.521C359.317 100.302 331.69 84.6706 331.69 84.6706C342.875 87.1528 355.212 92.2017 361.21 93.3268C364.574 93.9526 384.981 95.8372 384.981 95.8372L385.058 121.096C385.058 121.096 379.451 121.377 378.049 124.689C375.042 131.657 376.561 133.345 369.146 157.521C369.076 157.521 368.733 128.732 364.06 114.521Z" fill="#3C3A3A"/>
</g>
<path d="M284.141 201.427C266.174 198.446 250.251 189.154 239.862 175.588C229.474 162.023 225.468 145.291 228.724 129.063C231.163 116.941 237.529 105.745 247.018 96.8911C256.507 88.0372 268.691 81.9237 282.03 79.324C295.368 76.7244 309.261 77.7556 321.951 82.287C334.64 86.8184 345.555 94.6464 353.315 104.78C361.075 114.915 365.33 126.899 365.543 139.217C365.756 151.536 361.917 163.634 354.511 173.982C347.106 184.33 336.466 192.462 323.94 197.348C311.413 202.235 297.563 203.657 284.141 201.435V201.427ZM237.79 130.553C235.562 141.598 237.211 152.995 242.506 163.152C247.802 173.309 256.48 181.718 267.328 187.205C278.176 192.693 290.651 194.983 303.011 193.757C315.371 192.531 326.998 187.849 336.267 180.366C345.536 172.883 351.984 162.973 354.71 152.02C357.437 141.067 356.305 129.619 351.473 119.275C346.642 108.931 338.352 100.209 327.761 94.3259C317.171 88.4432 304.81 85.6944 292.405 86.4637C279.173 87.3 266.625 92.0861 256.738 100.068C246.85 108.05 240.185 118.775 237.79 130.553Z" fill="#483D89"/>
<path d="M357.892 113.649C353.149 99.4304 325.522 83.7986 325.522 83.7986C336.707 86.2809 349.044 91.3297 355.042 92.4548C358.406 93.0807 378.813 94.9652 378.813 94.9652L378.89 118.093C378.89 118.093 373.283 119.626 371.881 122.931C368.866 129.899 370.385 132.473 362.97 156.684C362.947 156.628 362.636 127.86 357.892 113.649Z" fill="#483D89"/>
<path d="M370.073 105.351C369.887 106.596 367.324 107.313 364.349 106.955C361.374 106.596 359.099 105.302 359.286 104.057C359.473 102.813 362.036 102.096 365.011 102.454C367.986 102.813 370.292 104.114 370.073 105.351Z" fill="#A6A6A6"/>
<path d="M360.595 104.107C360.836 103.509 363.43 102.827 366.265 103.523L360.595 104.107Z" fill="white"/>
<path d="M265.012 88.3271C270.918 84.2663 278.15 82.0921 285.574 82.1461C278.564 84.0025 271.819 86.0136 265.012 88.3271Z" fill="white"/>
<path d="M235.844 119.359C239.333 106.779 250.985 94.6418 263.813 88.9811C251.803 96.7161 241.732 107.095 235.844 119.359Z" fill="white"/>
<path opacity="0.1" d="M240.633 130.553C234.87 159.785 255.884 187.912 287.49 193.249C319.096 198.587 349.488 179.136 355.252 149.912C361.015 120.688 339.993 92.5462 308.387 87.2161C303.634 86.4083 298.786 86.1554 293.962 86.4637C268.003 88.1161 245.509 105.836 240.633 130.553Z" fill="#EBEBEB"/>
<g opacity="0.2">
<path d="M356.147 142.719L300.622 194.051C296.224 194.234 291.817 193.956 287.49 193.221C285.617 192.908 283.763 192.506 281.937 192.019L353.935 125.434C355.695 131.051 356.441 136.887 356.147 142.719Z" fill="white"/>
<path d="M305.412 86.7872L240.166 147.149C239.394 141.627 239.551 136.032 240.633 130.553C240.898 129.189 241.233 127.832 241.607 126.503L283.058 88.1302C286.624 87.2547 290.276 86.6965 293.962 86.4637C297.781 86.2156 301.618 86.324 305.412 86.7872Z" fill="white"/>
<path d="M346.684 110.773L266.079 185.311C264.237 184.205 262.471 183 260.79 181.703L342.797 105.879C344.197 107.441 345.494 109.075 346.684 110.773Z" fill="white"/>
<path d="M321.465 90.9149L244.653 161.937C243.687 159.917 242.86 157.846 242.176 155.735L314.759 88.5944C317.045 89.2414 319.285 90.0164 321.465 90.9149Z" fill="white"/>
<path d="M355.4 149.167C355.361 149.413 355.306 149.666 355.26 149.912C355.182 150.348 355.088 150.784 354.987 151.206L309.813 193.003C309.088 193.144 308.348 193.271 307.601 193.383L355.4 149.167Z" fill="white"/>
<path d="M338.209 101.308L255.867 177.477C255.571 177.196 255.283 176.907 255.003 176.619L337.29 100.499L338.209 101.308Z" fill="white"/>
</g>
<line x1="36.6581" y1="96.8571" x2="36.6581" y2="108" stroke="#FFA7E1" stroke-width="6.85714"/>
<line x1="36.6581" y1="117.429" x2="36.6581" y2="128.571" stroke="#FFA7E1" stroke-width="6.85714"/>
<line x1="41.7734" y1="112.286" x2="54.1156" y2="112.286" stroke="#FFA7E1" stroke-width="6.85714"/>
<line x1="19.9375" y1="112.286" x2="32.2796" y2="112.286" stroke="#FFA7E1" stroke-width="6.85714"/>
<line x1="36.6581" y1="96.8571" x2="36.6581" y2="108" stroke="#FFA7E1" stroke-width="6.85714"/>
<line x1="36.6581" y1="117.429" x2="36.6581" y2="128.571" stroke="#FFA7E1" stroke-width="6.85714"/>
<line x1="41.7734" y1="112.286" x2="54.1156" y2="112.286" stroke="#FFA7E1" stroke-width="6.85714"/>
<line x1="19.9375" y1="112.286" x2="32.2796" y2="112.286" stroke="#FFA7E1" stroke-width="6.85714"/>
<ellipse cx="7.12047" cy="134.143" rx="7.12047" ry="6.42857" fill="#84D7FE"/>
<path d="M78.3252 6.42899C81.6744 6.42899 84.1602 8.85173 84.1602 11.5716C84.1601 14.2913 81.6744 16.7141 78.3252 16.7141C74.9762 16.714 72.4913 14.2912 72.4912 11.5716C72.4912 8.85182 74.9761 6.42915 78.3252 6.42899Z" stroke="#BA84FE" stroke-width="2.57143"/>
</svg>
