<svg width="55" height="78" viewBox="0 0 55 78" fill="none" xmlns="http://www.w3.org/2000/svg">
<line x1="36.6581" y1="33.7143" x2="36.6581" y2="44.8571" stroke="#FFA7E1" stroke-width="6.85714"/>
<line x1="36.6581" y1="54.2857" x2="36.6581" y2="65.4286" stroke="#FFA7E1" stroke-width="6.85714"/>
<line x1="41.7734" y1="49.1429" x2="54.1156" y2="49.1429" stroke="#FFA7E1" stroke-width="6.85714"/>
<line x1="19.9375" y1="49.1428" x2="32.2796" y2="49.1428" stroke="#FFA7E1" stroke-width="6.85714"/>
<line x1="36.6581" y1="33.7143" x2="36.6581" y2="44.8571" stroke="#FFA7E1" stroke-width="6.85714"/>
<line x1="36.6581" y1="54.2857" x2="36.6581" y2="65.4286" stroke="#FFA7E1" stroke-width="6.85714"/>
<line x1="41.7734" y1="49.1429" x2="54.1156" y2="49.1429" stroke="#FFA7E1" stroke-width="6.85714"/>
<line x1="19.9375" y1="49.1428" x2="32.2796" y2="49.1428" stroke="#FFA7E1" stroke-width="6.85714"/>
<ellipse cx="7.12047" cy="71" rx="7.12047" ry="6.42857" fill="#84D7FE"/>
<path d="M45.1201 1.28613C48.4694 1.28613 50.9551 3.70888 50.9551 6.42871C50.955 9.14849 48.4693 11.5713 45.1201 11.5713C41.7711 11.5711 39.2862 9.14839 39.2861 6.42871C39.2861 3.70897 41.7711 1.2863 45.1201 1.28613Z" stroke="#BA84FE" stroke-width="2.57143"/>
</svg>
